<?xml version="1.0" encoding="utf-8"?>
<!-- Generator: Adobe Illustrator 17.0.2, SVG Export Plug-In . SVG Version: 6.00 Build 0)  -->
<!DOCTYPE svg PUBLIC "-//W3C//DTD SVG 1.1//EN" "http://www.w3.org/Graphics/SVG/1.1/DTD/svg11.dtd">
<svg version="1.1" id="Calque_1" xmlns="http://www.w3.org/2000/svg" xmlns:xlink="http://www.w3.org/1999/xlink" x="0px" y="0px"
	 width="59.218px" height="39.493px" viewBox="0 0 59.218 39.493" enable-background="new 0 0 59.218 39.493" xml:space="preserve">
<path fill="#B58335" d="M40.574,19.586c2.191,2.439,2.952,4.573,3.092,7.918c0.03,0.661-0.077,1.635-0.369,2.293
	c-0.689-4.075-3.432-7.743-6.724-9.902c-3.652-2.394-8.108-2.989-11.368-2.605c-2.35,0.274-5.531,1.024-7.986,2.693
	c3.3,1.661,5.505,3.315,6.88,7.23c0.33,0.949,0.126,1.447,0.246,2.081c-3.085-4.753-10.18-9.61-15.499-7.882
	c-5.615,1.6-8.812,5.532-8.846,9.137c-0.07,7.175,13.171,8.778,29.525,8.933c16.354,0.157,29.515-1.194,29.691-8.367
	C59.362,25.364,49.013,18.738,40.574,19.586z"/>
<path fill="#010101" d="M21.077,24.271c0,0,7.476,5.459,9.493,6.052c2.017,0.593,6.289,1.424,9.019-0.949
	c2.73-2.373,7.678-4.96,9.288-5.433c1.61-0.474,4.83-1.2,6.662-0.031c1.831,1.168-7.23-4.736-7.23-4.736s-3.315-1.705-5.777-1.358
	c-2.463,0.347-7.925,2.589-11.303,3.694C27.849,22.615,21.077,24.271,21.077,24.271z"/>
<path fill="#010101" d="M49.161,24.098c0,0,2.77-0.625,4.357-0.473c1.99,0.189,2.873,0.789,2.873,0.789s1.547,1.358,1.61,1.769
	s0.253,1.325-0.6,1.578c-0.852,0.253-1.452,0.095-2.368-0.347C54.118,26.971,49.161,24.098,49.161,24.098z"/>
<path fill="#010101" d="M47.961,18.538c0,0-3.22-1.484-4.862-1.326c-1.642,0.158-9.315,2.652-11.461,3.599
	s-10.457,3.146-11.493,3.221c-2.493,0.179-4.44-0.034-6.644,0.545c-1.193,0.314-2.292,0.521-2.292,0.521s-0.219-8.632,0.913-11.497
	c0.405-1.026,1.062-7.148,6.665-10.186C22.24,1.543,30.658,0.7,34.794,1.552c4.136,0.853,9.377,2.968,10.672,7.23
	C46.761,13.045,47.961,18.538,47.961,18.538z"/>
<path fill="#010101" d="M25.605,1.159c0,0,0.946-0.286,1.429-0.286c0.482,0,1.536-0.017,1.536-0.017s-0.375-0.804-1-0.84
	c-0.625-0.036-0.792-0.022-1.286,0.143C25.64,0.374,25.605,1.159,25.605,1.159z"/>
</svg>
