<?xml version="1.0" encoding="utf-8"?>
<!-- Generator: Adobe Illustrator 17.0.2, SVG Export Plug-In . SVG Version: 6.00 Build 0)  -->
<!DOCTYPE svg PUBLIC "-//W3C//DTD SVG 1.1//EN" "http://www.w3.org/Graphics/SVG/1.1/DTD/svg11.dtd">
<svg version="1.1" id="Calque_1" xmlns="http://www.w3.org/2000/svg" xmlns:xlink="http://www.w3.org/1999/xlink" x="0px" y="0px"
	 width="63.167px" height="40.784px" viewBox="0 0 63.167 40.784" enable-background="new 0 0 63.167 40.784" xml:space="preserve">
<path fill="#B58335" d="M44.523,20.876c2.191,2.439,2.952,4.573,3.092,7.918c0.03,0.661-0.077,1.635-0.369,2.293
	c-0.689-4.075-3.432-7.743-6.724-9.902c-3.652-2.394-8.108-2.989-11.368-2.605c-2.35,0.274-5.531,1.024-7.986,2.693
	c3.3,1.661,5.505,3.315,6.88,7.23c0.33,0.949,0.126,1.447,0.246,2.081c-3.085-4.753-10.18-9.61-15.499-7.882
	c-5.615,1.6-8.812,5.532-8.846,9.137c-0.07,7.175,13.171,8.778,29.525,8.933c16.354,0.157,29.515-1.194,29.691-8.367
	C63.311,26.654,52.962,20.028,44.523,20.876z"/>
<path fill="#010101" d="M34.54,1.197c-1.499,0.271-2.494,1.705-2.223,3.204c0.114,0.628,0.434,1.166,0.875,1.561
	c0.054,0.049,0.11,0.094,0.168,0.138l-6.072,7.342L19.882,4.91c0.057-0.045,0.11-0.094,0.163-0.144
	c0.657-0.618,0.999-1.545,0.826-2.499c-0.271-1.499-1.705-2.494-3.204-2.223c-1.499,0.271-2.494,1.705-2.223,3.204
	c0.172,0.954,0.817,1.702,1.649,2.051c0.067,0.028,0.134,0.055,0.203,0.078l-3.949,10.585l-8.259-4.751
	c0.039-0.062,0.075-0.124,0.109-0.188c0.275-0.525,0.386-1.14,0.273-1.769C5.2,7.756,3.766,6.761,2.267,7.032
	c-1.499,0.271-2.494,1.705-2.223,3.204s1.705,2.494,3.204,2.223c0.075-0.014,0.148-0.032,0.219-0.051
	c0.071-0.019,0.139-0.041,0.207-0.065l4.487,14.492c0.543,0.146,5.137,1.246,14.276-0.407s13.056-4.292,13.515-4.618L35.08,6.663
	c0.072-0.001,0.144-0.004,0.217-0.012c0.074-0.007,0.149-0.015,0.224-0.029c1.499-0.271,2.494-1.705,2.223-3.204
	C37.472,1.921,36.038,0.926,34.54,1.197z"/>
</svg>
