<?xml version="1.0" encoding="utf-8"?>
<!-- Generator: Adobe Illustrator 17.0.2, SVG Export Plug-In . SVG Version: 6.00 Build 0)  -->
<!DOCTYPE svg PUBLIC "-//W3C//DTD SVG 1.1//EN" "http://www.w3.org/Graphics/SVG/1.1/DTD/svg11.dtd">
<svg version="1.1" id="Calque_1" xmlns="http://www.w3.org/2000/svg" xmlns:xlink="http://www.w3.org/1999/xlink" x="0px" y="0px"
	 width="59.218px" height="22.311px" viewBox="21.25 38.845 59.218 22.311" enable-background="new 21.25 38.845 59.218 22.311"
	 xml:space="preserve">
<path fill="#B58335" d="M61.824,41.248c2.191,2.439,2.952,4.573,3.092,7.918c0.03,0.661-0.077,1.635-0.369,2.293
	c-0.689-4.075-3.432-7.743-6.724-9.902c-3.652-2.394-8.108-2.989-11.368-2.605c-2.35,0.274-5.531,1.024-7.986,2.693
	c3.3,1.661,5.505,3.315,6.88,7.23c0.33,0.949,0.126,1.447,0.246,2.081c-3.085-4.753-10.18-9.61-15.499-7.882
	c-5.615,1.6-8.812,5.532-8.846,9.137c-0.07,7.175,13.171,8.778,29.525,8.933c16.354,0.157,29.515-1.194,29.691-8.367
	C80.612,47.026,70.263,40.4,61.824,41.248z"/>
</svg>
