<?xml version="1.0" encoding="utf-8"?>
<!-- Generator: Adobe Illustrator 17.0.2, SVG Export Plug-In . SVG Version: 6.00 Build 0)  -->
<!DOCTYPE svg PUBLIC "-//W3C//DTD SVG 1.1//EN" "http://www.w3.org/Graphics/SVG/1.1/DTD/svg11.dtd">
<svg version="1.1" id="Calque_1" xmlns="http://www.w3.org/2000/svg" xmlns:xlink="http://www.w3.org/1999/xlink" x="0px" y="0px"
	 width="1319.155px" height="790.874px" viewBox="0 0 1319.155 790.874" enable-background="new 0 0 1319.155 790.874"
	 xml:space="preserve">
<path fill="#B58335" d="M953.599,346.13L1081,431.646l22,110.724l-46,33.276l-48-33.276l-39.118-54.008
	c1.391,11.159,2.317,22.904,2.841,35.426c0.668,14.725-1.715,36.422-8.22,51.08c-5-29.574-14.86-58.184-28.414-84.984L923,542.369
	l-23.535,8.93c26.255,25.022,122.079,123.099,28.186,138.352c58.068-8.802,119.083-39.226,156.916-79.953
	c24.725-26.615,38.984-56.498,41.929-87.465c0.073,0.833,0.166,1.662,0.227,2.497c2.832,38.557-11.746,76.233-42.156,108.968
	c-45.158,48.611-123.343,82.564-190.121,82.564h-0.011c-4.92,0-9.727-0.192-14.421-0.564c-6.985-0.564-13.879-1.467-20.74-2.629
	c-18.342-9.808-34.618-23.239-48.901-37.936c-47.969-18.984-78.738-47.026-78.738-47.026L452.557,321.632
	c-24.076,8.839-47.744,20.181-68.976,34.615c73.512,37.001,122.631,73.846,153.261,161.058c7.351,21.14,2.807,32.234,5.48,46.357
	C473.6,457.783,315.55,349.587,197.062,388.08C71.981,423.722,0.763,511.313,0.006,591.619
	c-1.56,159.833,293.402,195.542,657.708,198.994c364.307,3.497,657.486-26.598,661.406-186.386
	C1322.091,487.241,1130.11,354.003,953.599,346.13z"/>
<g>
	<path fill="#010101" d="M736.732,580.699c-3.566-5.743-6.646-10.72-9.264-14.601c-12.943-19.25-25.107-39.392-36.876-58.856
		c-17.772-29.394-36.142-59.793-57.277-87.314c-32.779-42.698-77.971-82.902-134.277-119.484
		c-33.445-21.733-64.239-38.162-94.118-50.236c-24.452-9.885-56.983-21.191-90.541-28.029c-17.693-3.058-34.867-4.784-51.24-4.784
		c-58.078,0-106.531,19.6-132.89,53.767c-14.172,18.359-19.69,38.873-15.143,56.25c11.352,43.364,68.673,50.879,102.909,55.37
		l2.178,0.293c12.288,1.614,24.621,3.092,36.955,4.57c48.532,5.834,98.733,11.848,145.843,26.731
		c51.962,16.407,98,45.666,142.526,73.954c64.837,41.208,119.202,81.469,166.222,123.107c33.287,29.473,65.536,50.224,98.305,63.438
		C776.248,644.182,752.191,605.591,736.732,580.699z"/>
	<path fill="#010101" d="M1126.724,500.731c-9.512-129.279-163.051-234.196-223.171-270.473
		c3.464,33.389,7.436,78.005,8.079,112.782c2.753,1.614,16.339,9.67,34.529,22.376c10.257,7.143,21.97,15.843,34.122,25.671
		c5.958,5.066,12.344,9.997,18.336,15.639c6.138,5.473,12.299,11.081,18.111,17.106c6.037,5.766,11.611,12.006,17.039,18.212
		c5.664,5.969,10.291,12.728,15.154,18.878c4.863,6.161,8.508,12.954,12.514,18.934c3.735,6.172,6.387,12.57,9.275,18.167
		c2.731,5.687,4.073,11.464,5.845,16.271c1.918,4.796,2.381,9.332,2.979,12.999c1.151,7.312,1.805,11.498,1.805,11.498
		c0.237,1.568-0.779,3.069-2.347,3.385c-1.614,0.327-3.182-0.711-3.509-2.324l-0.113-0.542c0,0-0.801-3.915-2.2-10.776
		c-0.7-3.419-1.286-7.628-3.329-12.119c-1.896-4.502-3.329-9.84-6.172-15.154c-3.024-5.224-5.755-11.16-9.58-16.914
		c-4.119-5.585-7.808-11.893-12.773-17.637s-9.625-12.006-15.391-17.569c-5.495-5.766-11.137-11.566-17.253-16.926
		c-5.868-5.586-12.096-10.799-18.291-15.854c-6.037-5.213-12.491-9.772-18.494-14.455c-12.254-9.061-24.023-17.05-34.325-23.583
		c-10.821-6.883-19.792-12.13-25.964-15.617c-0.316,11.205-1.207,20.446-2.877,26.562c-10.528,38.636-44.233,82.293-209.236,82.282
		c-3.374,0-6.996-0.079-10.494-0.113c5.563,8.982,11.036,17.975,16.418,26.878c11.667,19.284,23.73,39.245,36.435,58.157
		c2.697,4.028,5.901,9.162,9.591,15.109c20.187,32.497,55.697,89.605,107.839,117.487c6.861,1.162,13.755,2.065,20.74,2.629
		c4.694,0.372,9.501,0.564,14.421,0.564h0.011c66.778,0,144.963-33.953,190.121-82.564
		C1114.977,576.964,1129.556,539.288,1126.724,500.731z"/>
	<path fill="#010101" d="M775.177,122.339c15.402,9.354,27.239,11.464,35.194,6.341c16.395-10.618,19.769-51.477,18.111-83.647
		C808.554,15.414,782.568,0,751.729,0l-2.968,0.045c-22.15,0.711-43.262,7.301-63.686,13.676
		c-21.326,6.657-41.468,12.943-62.411,12.943c-4.164,0-8.169-0.327-12.13-0.835c49.716,24.294,99.557,55.686,136.839,79.167
		C757.957,111.676,767.357,117.589,775.177,122.339z"/>
	<path fill="#010101" d="M508.472,285.943c35.375,22.985,66.462,47.426,93.103,73.04c190.505,48.441,269.322-18.63,291.642-44.616
		c-1.873-32.825-5.439-70.005-8.587-98.756c-5.078-25.389-12.864-63.212-33.468-123.411c-1.726-5.044-3.577-9.806-5.495-14.443
		c-1.715,25.919-7.989,53.846-25.885,65.435c-5.71,3.701-12.096,5.552-19.126,5.552c-10.178,0-21.687-3.882-34.438-11.622
		c-7.899-4.796-17.377-10.765-28.052-17.49c-26.946-16.96-53.937-33.806-81.627-49.536c-49.683-28.232-102.491-56.397-159.948-63.9
		c-40.814-5.337-99.625,3.521-110.627,53.057c-1.636,7.368-18.562,83.072-35.758,153.855c22.782,6.443,43.984,14.105,61.215,21.067
		C442.338,246.676,474.09,263.601,508.472,285.943z"/>
</g>
</svg>
