<?xml version="1.0" encoding="utf-8"?>
<!-- Generator: Adobe Illustrator 17.0.2, SVG Export Plug-In . SVG Version: 6.00 Build 0)  -->
<!DOCTYPE svg PUBLIC "-//W3C//DTD SVG 1.1//EN" "http://www.w3.org/Graphics/SVG/1.1/DTD/svg11.dtd">
<svg version="1.1" id="Calque_1" xmlns="http://www.w3.org/2000/svg" xmlns:xlink="http://www.w3.org/1999/xlink" x="0px" y="0px"
	 width="59.218px" height="55.36px" viewBox="0 0 59.218 55.36" enable-background="new 0 0 59.218 55.36" xml:space="preserve">
<path fill="#B58335" d="M40.574,2.403c2.191,2.439,2.952,4.573,3.092,7.918c0.03,0.661-0.077,1.635-0.369,2.293
	c-0.689-4.075-3.432-7.743-6.724-9.902c-3.652-2.394-8.108-2.989-11.368-2.605c-2.35,0.274-5.531,1.024-7.986,2.693
	c3.3,1.661,5.505,3.315,6.88,7.23c0.33,0.949,0.126,1.447,0.246,2.081c-3.085-4.753-10.18-9.61-15.499-7.882
	C3.231,5.829,0.034,9.761,0,13.366c-0.07,7.175,13.171,8.778,29.525,8.933c16.354,0.157,29.515-1.194,29.691-8.367
	C59.362,8.181,49.013,1.555,40.574,2.403z"/>
<g>
	<path fill="#010101" d="M30.549,55.11c0,0,3.464-3.906,4.139-4.821c0.505-0.684,0.492-0.854,0.492-1.605
		c0-0.752-2.046-25.066-2.21-26.699c-0.164-1.633-0.441-1.623-0.951-1.82c-0.255-0.098-1.139-0.337-2.024-0.337
		c-0.885,0-1.769,0.238-2.024,0.337c-0.511,0.197-0.787,0.187-0.951,1.82c-0.164,1.633-2.21,25.948-2.21,26.699
		c0,0.752-0.013,0.922,0.492,1.605c0.676,0.915,4.139,4.821,4.139,4.821s0.203,0.25,0.554,0.25
		C30.346,55.36,30.549,55.11,30.549,55.11z"/>
	<g>
		<path fill="#010101" d="M27.033,21.863c0.166-1.511,0.441-1.506,0.938-1.699c0.255-0.098,1.139-0.337,2.024-0.337
			s1.769,0.238,2.024,0.337c0.511,0.197,0.787,0.187,0.951,1.82c0.164,1.633,2.21,25.948,2.21,26.699
			c0,0.752,0.013,0.922-0.492,1.605c-0.676,0.915-4.139,4.821-4.139,4.821s-0.203,0.25-0.554,0.25c-0.351,0-0.554-0.25-0.554-0.25
			s-3.464-3.906-4.139-4.821c-0.505-0.684-0.492-0.854-0.492-1.605c0-0.437,0.693-8.858,1.305-16.143"/>
	</g>
</g>
<path fill="#010101" d="M30.137,18.757c1.437,0,2.738,0.594,2.738,0.594c0.253-0.318,0.371-0.886,0.371-0.886
	s0.354-1.542,0.544-2.659c0.19-1.116-0.597-1.186-0.597-1.186c-1.326-0.385-3.161-0.425-3.161-0.425s-1.834,0.04-3.161,0.425
	c0,0-0.786,0.07-0.597,1.186s0.544,2.659,0.544,2.659s0.119,0.569,0.371,0.886c0,0,1.301-0.594,2.738-0.594
	C29.928,18.757,30.137,18.757,30.137,18.757z"/>
<path fill="#010101" d="M19.96,35.77c0.08,0.481,0.643,2.646,0.643,2.646s0.029,0.135,0.163,0.203
	c0.134,0.068,0.26,0.012,0.26,0.012s2.082-0.818,2.518-1.035l1.437-2.824c0.346-4.135,0.692-8.207,0.903-10.649L19.96,35.77z"/>
</svg>
