<?xml version="1.0" encoding="utf-8"?>
<!-- Generator: Adobe Illustrator 19.2.0, SVG Export Plug-In . SVG Version: 6.00 Build 0)  -->
<svg version="1.1" id="Calque_1" xmlns="http://www.w3.org/2000/svg" xmlns:xlink="http://www.w3.org/1999/xlink" x="0px" y="0px"
	 viewBox="0 0 59.2 52.3" style="enable-background:new 0 0 59.2 52.3;" xml:space="preserve">
<style type="text/css">
	.st0{fill:#B58335;}
	.st1{fill:#FFFFFF;}
	.st2{fill:#B21F1F;}
</style>
<path class="st0" d="M40.6,16.5c2.2,2.4,3,4.6,3.1,7.9c0,0.7-0.1,1.6-0.4,2.3c-0.7-4.1-3.4-7.7-6.7-9.9c-3.7-2.4-8.1-3-11.4-2.6
	c-2.3,0.3-5.5,1-8,2.7c3.3,1.7,5.5,3.3,6.9,7.2c0.3,0.9,0.1,1.4,0.2,2.1c-3.1-4.8-10.2-9.6-15.5-7.9C3.2,20,0,23.9,0,27.5
	c-0.1,7.2,13.2,8.8,29.5,8.9c16.4,0.2,29.5-1.2,29.7-8.4C59.4,22.3,49,15.7,40.6,16.5z"/>
<polygon class="st1" points="17.2,16.9 19.6,12.4 25.8,9.9 36.4,9.9 42.3,14.1 44.9,18.7 44.4,23.1 43.9,26.3 42.9,25 40.6,21.6 
	36.2,18.5 32.8,16.6 28.2,15.5 22.2,16.3 17.7,17.4 "/>
<circle class="st1" cx="51.9" cy="33.5" r="4.2"/>
<path class="st2" d="M51.9,28.5c-0.6,0-1.1,0.1-1.6,0.3c0-0.2-0.1-0.5-0.1-0.7c-0.3-1.7,1.2-6.8,1.7-8.3c0.5-1.5,2.3-4.6,0.8-5.8
	c-1.5-1.4-6.1-9.9-7.4-11.6s-5-2.4-6.6-2.5c-1.7-0.1-3.6,0.1-5,0.8c-1.3,0.7-4.6,3.4-6.6,4.1c-1.3,0.5-4.3,3.8-6,6
	c-2,0.9-2.7,2-3.1,2.7c-0.6,0.8-1.1,2.7-1.4,3.9c-0.1,0.4,0.2,0.7,0.5,0.7c0.1,0,0.2,0,0.2-0.1c2.2-0.9,6.5-2,10.6-2
	c4.8,0,12.6,4.6,14.9,10c0.3,0.7,0.6,1,0.9,1c0.3,0,0.6-0.4,0.8-1c0.4-1.2,1.2-5.9,0.9-7.4c0.1-0.2,0.4-1,0.8-2.1
	c0.5-1.3-0.3-3.1-0.8-4.1c-0.4-0.8-1.4-3.2-1.7-4.1c-0.3-1,0.8-3.1,0.8-1.7c0,1.2,0.5,3.9,0.8,4.1c1-0.2,1.7-1.7,1.7-1.7
	s-1,2.6-0.8,3.3c0.3,1.3,1.6,2.1,1.7,4.1c0.1,2.1-0.3,2.6-0.8,4.1c-0.8,2.1,0.8,7.2,1.7,9.1l0,0c-1,0.9-1.7,2.2-1.7,3.7
	c0,2.8,2.2,5,5,5c2.7,0,5-2.2,5-5S54.7,28.5,51.9,28.5z M44.4,18.9c0.3,0.9-0.3,4.7-0.7,6.4C41,19.6,33,15.1,28,15.1
	c-3.6,0-7.4,0.8-10.1,1.8c0.4-1.3,0.7-2.2,1-2.6v-0.1c0.8-1.1,2.5-3.7,11.5-3.7C39.6,10.5,44.1,17.9,44.4,18.9z M51.9,37.5
	c-2.2,0-3.9-1.8-3.9-3.9c0-2.2,1.8-3.9,3.9-3.9c2.2,0,3.9,1.8,3.9,3.9C55.9,35.6,54.1,37.5,51.9,37.5z"/>
<path class="st1" d="M48.3,29.2c-8,4.7-9.6-0.7-12.8-1.8c-2.3-0.8-4.2,0.1-4.9,1.7c-0.7-1.5-2.6-2.4-4.9-1.7
	c-3.3,1.1-4.8,6.5-12.8,1.8c0.9,2.2,2.3,4.1,3.9,5.5c-0.7,0.8-1.1,1.8-1.1,2.9c0,1.8,1,3.3,2.5,4c0,0.2-0.1,0.5-0.1,0.7
	c0,2.4,2,4.4,4.4,4.4c0.3,0,0.6,0,0.9-0.1c0.2,2.1,1.9,3.7,3.9,3.9c0.6,1.1,1.8,1.9,3.2,1.9c1.4,0,2.6-0.8,3.2-1.9
	c2.1-0.2,3.7-1.8,3.9-3.9c0.3,0.1,0.6,0.1,0.9,0.1c2.4,0,4.4-2,4.4-4.4c0-0.2,0-0.5-0.1-0.7c1.5-0.7,2.5-2.2,2.5-4
	c0-1.1-0.4-2.1-1.1-2.9C46.1,33.3,47.4,31.4,48.3,29.2z M30.6,39.2c-1.9,0-3.5-1.2-4.1-2.8c0.2-0.1,0.4-0.2,0.6-0.3
	c1.9-1,3-2.2,3.5-3.5c0.5,1.3,1.7,2.5,3.5,3.5c0.2,0.1,0.4,0.2,0.6,0.3C34.1,38,32.5,39.2,30.6,39.2z"/>
</svg>
