<?xml version="1.0" encoding="utf-8"?>
<!-- Generator: Adobe Illustrator 17.0.2, SVG Export Plug-In . SVG Version: 6.00 Build 0)  -->
<!DOCTYPE svg PUBLIC "-//W3C//DTD SVG 1.1//EN" "http://www.w3.org/Graphics/SVG/1.1/DTD/svg11.dtd">
<svg version="1.1" id="Calque_1" xmlns="http://www.w3.org/2000/svg" xmlns:xlink="http://www.w3.org/1999/xlink" x="0px" y="0px"
	 width="69.672px" height="37.683px" viewBox="0 0 69.672 37.683" enable-background="new 0 0 69.672 37.683" xml:space="preserve">
<path fill="#B58335" d="M51.028,17.775c2.191,2.439,2.952,4.573,3.092,7.918c0.03,0.661-0.077,1.635-0.369,2.293
	c-0.689-4.075-3.432-7.743-6.724-9.902c-3.652-2.394-8.108-2.989-11.368-2.605c-2.35,0.274-5.531,1.024-7.986,2.693
	c3.3,1.661,5.505,3.315,6.88,7.23c0.33,0.949,0.126,1.447,0.246,2.081c-3.085-4.753-10.18-9.61-15.499-7.882
	c-5.615,1.6-8.812,5.532-8.846,9.137c-0.07,7.175,13.171,8.778,29.525,8.933c16.354,0.157,29.515-1.194,29.691-8.367
	C69.816,23.553,59.467,16.927,51.028,17.775z"/>
<g id="Your_Icon_1_">
	<g>
		<path fill="#010101" d="M22.639,0L0,12.773l25.721,3.752l0.209,1.119l-13.046-1.902l1.208,6.478c0,0,8.85,3.467,13.192,2.657
			c2.882-0.538,6.889-3.508,9.287-5.471c-0.118-0.085-0.206-0.212-0.235-0.367c-0.04-0.214,0.046-0.423,0.203-0.552l-1.291-6.919
			L24.941,8.372c-0.147-0.046-0.229-0.201-0.184-0.348c0.046-0.147,0.201-0.229,0.349-0.183l10.41,3.228
			c0.12,0.011,0.224,0.096,0.247,0.221l1.323,7.095c0.15,0.049,0.275,0.158,0.343,0.305c0.741-0.631,1.191-1.045,1.191-1.045
			l-1.208-6.477l11.156-6.295l-0.209-1.12L22.639,0z"/>
		<path fill="#010101" d="M38.09,19.359c-0.111-0.137-0.336-0.379-0.606-0.462c0.018,0.288-0.18,0.551-0.47,0.605
			c-0.138,0.026-0.273-0.002-0.387-0.065c-0.128,0.429,0.145,0.847,0.145,0.847s1.943,3.112,3.532,4.116
			c1.588,1.004,3.503,1.188,3.503,1.188l0.771-1.3c0,0-1.707-0.599-3.297-1.604C39.692,21.679,38.907,20.367,38.09,19.359z"/>
	</g>
</g>
</svg>
