<?xml version="1.0" encoding="utf-8"?>
<!-- Generator: Adobe Illustrator 17.0.2, SVG Export Plug-In . SVG Version: 6.00 Build 0)  -->
<!DOCTYPE svg PUBLIC "-//W3C//DTD SVG 1.1//EN" "http://www.w3.org/Graphics/SVG/1.1/DTD/svg11.dtd">
<svg version="1.1" id="Calque_1" xmlns="http://www.w3.org/2000/svg" xmlns:xlink="http://www.w3.org/1999/xlink" x="0px" y="0px"
	 width="84.283px" height="40.853px" viewBox="0 0 84.283 40.853" enable-background="new 0 0 84.283 40.853" xml:space="preserve">
<path fill="#B58335" d="M53.059,20.945c2.191,2.439,2.952,4.573,3.092,7.918c0.03,0.661-0.077,1.635-0.369,2.293
	c-0.689-4.075-3.432-7.743-6.724-9.902c-3.652-2.394-8.108-2.989-11.368-2.605c-2.35,0.274-5.531,1.024-7.986,2.693
	c3.3,1.661,5.505,3.315,6.88,7.23c0.33,0.949,0.126,1.447,0.246,2.081c-3.085-4.753-10.18-9.61-15.499-7.882
	c-5.615,1.6-8.812,5.532-8.846,9.137c-0.07,7.175,13.171,8.778,29.525,8.933c16.354,0.157,29.515-1.194,29.691-8.367
	C71.847,26.723,61.498,20.097,53.059,20.945z"/>
<path fill="#010101" d="M2.155,12.71c0.548,0.836,1.103,1.61,1.72,2.313c0.099,0.113,2.203,2.419,2.499,2.638
	c0.336,0.248,2.889,2.809,3.908,3.559c0.736,0.544,5.461,3.487,7.756,4.29c0.814,0.284,3.021,1.537,3.254,1.685
	c0.359,0.228,1.262,0.979,1.342,1.226l0.054,0.022c0,0,2.324-1.157,2.282-1.597c-0.004-0.037-0.016-0.08-0.026-0.122
	c-0.106-0.446-0.547-1.082-0.725-1.419c-0.1-0.186-1.06-1.13-1.159-1.281c-0.201-0.304-0.319-0.497-0.459-0.785
	c-0.147-0.299-0.289-0.629-0.424-0.958c0,0-0.147-0.836-0.211-1.006c-0.125-0.339-0.181-0.682-0.283-1.034
	c-0.097-0.347-0.246-0.863-0.358-1.29c-0.148,0.145-0.207,1.084-0.236,1.31c-0.052,0.418-0.029,0.833-0.001,1.243
	c0.014,0.204,0.149,1.013,0.201,1.211c0.104,0.396,0.397,1.241,0.587,1.63c0.167,0.339-1.966-0.621-2.643-1.5
	c-0.515-0.667-2.19-1.926-3.959-4.301c-0.23-0.307-0.915-0.973-0.947-1.407c-0.467,0.581,0.381,2.442,0.591,2.837
	c0.214,0.393,0.716,0.936,1.001,1.272c0.143,0.167,1.32,1.579,1.32,1.579c-0.684-0.367-1.221-0.605-2.166-1.168
	c-0.259-0.155-0.476-0.301-0.671-0.443c-1.098-1.275-2.253-3.499-2.685-4.268c-0.437-0.78-0.83-1.554-1.047-2.364
	c-0.05-0.177-0.128-1.05-0.15-1.268c-0.036-0.359,0.019-0.796,0.362-1.231c-0.126-0.003-0.257,0.047-0.373,0.118
	c-0.115,0.074-0.216,0.17-0.3,0.276c-0.172,0.211-0.293,0.45-0.39,0.693c-0.094,0.244-0.166,0.496-0.214,0.752
	c-0.026,0.128-0.077,0.661-0.07,0.807c0.016,0.538,0.127,1.055,0.29,1.547c0.114,0.342,0.132,0.605,0.29,0.918
	c-0.36-0.408-1.335-1.492-1.606-2.144c-0.09-0.215-0.213-1.001-0.197-1.69c0.123-0.628,0.257-1.115,0.415-1.806
	c0.031-0.134,0.713-3.09,0.829-3.181c0.057-0.047,0.807-1.441,0.869-1.496c0,0,0.574-0.696,0.647-0.83
	c0.071-0.133,1.136-1.653,1.213-1.921c0.165-0.566-0.153-0.711-0.153-0.711c-0.224-0.098-0.309-0.062-0.414-0.046
	c-0.401,0.171-1.566,1.496-1.566,1.496C9.648,5.43,9.21,5.698,9.21,5.698C8.779,5.993,8.1,5.682,7.826,5.109
	C7.735,4.804,7.706,4.523,7.712,4.267c0.02-0.815,0.141-1.542,0.284-2.146C8.012,2.05,8.321,0.605,8.279,0
	C8.18,0.013,7.565,0.88,7.386,1.312c0,0-0.725,1.499-0.766,2.429C6.499,4.469,6.565,5.312,6.721,6.005
	C6.88,6.698,7.104,7.013,7.146,7.653c0.04,0.662,0.066,1.753,0.041,2.457c-0.028,0.707-0.047,1.127-0.364,1.8
	c0,0-0.278,0.835-0.345,1.123c-0.226,0.979-1.357-0.144-1.357-0.144C4.523,12.206,4.14,11.758,3.7,10.96
	c-0.204-0.575-0.172-0.917-0.183-1.234C3.496,8.873,3.72,7.128,3.822,6.275c0.094-0.822,0.144-3.081,0.027-4.738
	c-0.01-0.133,0.007-0.72-0.08-0.967c-0.128,0.026-1.366,4.347-1.478,5.29C2.186,6.729,1.755,8.328,1.731,9.273
	C0.549,8.391,0.265,7.409,0.265,7.409C-0.219,7.633,0.077,9.01,0.238,9.49C0.723,10.931,2.103,12.637,2.155,12.71z"/>
<path fill="#010101" d="M82.129,12.85c-0.548,0.836-1.103,1.61-1.72,2.313c-0.099,0.113-2.203,2.419-2.499,2.638
	c-0.336,0.248-2.889,2.809-3.908,3.559c-0.736,0.544-5.461,3.487-7.756,4.29c-0.814,0.284-3.021,1.537-3.254,1.685
	c-0.359,0.228-1.262,0.979-1.342,1.226l-0.054,0.022c0,0-2.324-1.157-2.282-1.597c0.004-0.037,0.016-0.08,0.026-0.122
	c0.106-0.446,0.547-1.082,0.725-1.419c0.1-0.186,1.06-1.13,1.159-1.281c0.201-0.304,0.319-0.497,0.459-0.785
	c0.147-0.299,0.289-0.629,0.424-0.958c0,0,0.147-0.836,0.211-1.006c0.125-0.339,0.181-0.682,0.283-1.034
	c0.097-0.347,0.246-0.863,0.358-1.29c0.148,0.145,0.207,1.084,0.236,1.31c0.052,0.418,0.029,0.833,0.001,1.243
	c-0.014,0.204-0.149,1.013-0.201,1.211c-0.104,0.396-0.397,1.241-0.587,1.63c-0.167,0.339,1.966-0.621,2.643-1.5
	c0.515-0.667,2.19-1.926,3.959-4.301c0.23-0.307,0.915-0.973,0.947-1.407c0.467,0.581-0.381,2.442-0.591,2.837
	c-0.214,0.393-0.716,0.936-1.001,1.272c-0.143,0.167-1.32,1.579-1.32,1.579c0.684-0.367,1.221-0.605,2.166-1.168
	c0.259-0.155,0.476-0.301,0.671-0.443c1.098-1.275,2.253-3.499,2.685-4.268c0.437-0.78,0.83-1.554,1.047-2.364
	c0.05-0.177,0.128-1.05,0.15-1.268c0.036-0.359-0.019-0.796-0.362-1.231c0.126-0.003,0.257,0.047,0.373,0.118
	c0.115,0.074,0.216,0.17,0.3,0.276c0.172,0.211,0.293,0.45,0.39,0.693c0.094,0.244,0.166,0.496,0.214,0.752
	c0.026,0.128,0.077,0.661,0.07,0.807c-0.016,0.538-0.127,1.055-0.29,1.547c-0.114,0.342-0.132,0.605-0.29,0.918
	c0.36-0.408,1.335-1.492,1.606-2.144c0.09-0.215,0.213-1.001,0.197-1.69c-0.123-0.628-0.257-1.115-0.415-1.806
	c-0.031-0.134-0.713-3.09-0.829-3.181c-0.057-0.047-0.807-1.441-0.869-1.496c0,0-0.574-0.696-0.647-0.83
	C73.142,6.052,72.078,4.531,72,4.264c-0.165-0.566,0.153-0.711,0.153-0.711c0.224-0.098,0.309-0.062,0.414-0.046
	c0.401,0.171,1.566,1.496,1.566,1.496c0.503,0.566,0.941,0.835,0.941,0.835c0.431,0.294,1.11-0.016,1.384-0.59
	c0.091-0.304,0.119-0.586,0.113-0.842c-0.02-0.815-0.141-1.542-0.284-2.146c-0.016-0.071-0.324-1.516-0.282-2.121
	c0.099,0.013,0.714,0.88,0.893,1.312c0,0,0.725,1.499,0.766,2.429c0.121,0.728,0.056,1.571-0.101,2.264
	c-0.159,0.693-0.383,1.007-0.425,1.648c-0.04,0.662-0.066,1.753-0.041,2.457c0.028,0.707,0.047,1.127,0.364,1.8
	c0,0,0.278,0.835,0.345,1.123c0.226,0.979,1.357-0.144,1.357-0.144c0.598-0.683,0.981-1.13,1.421-1.929
	c0.204-0.575,0.172-0.917,0.183-1.234c0.021-0.853-0.202-2.598-0.304-3.451c-0.094-0.822-0.144-3.081-0.027-4.738
	c0.01-0.133-0.007-0.72,0.08-0.967C80.642,0.736,81.88,5.057,81.992,6c0.105,0.868,0.537,2.467,0.561,3.412
	c1.182-0.882,1.466-1.864,1.466-1.864c0.484,0.224,0.188,1.601,0.027,2.081C83.561,11.07,82.181,12.776,82.129,12.85z"/>
</svg>
