<?xml version="1.0" encoding="utf-8"?>
<!-- Generator: Adobe Illustrator 17.0.2, SVG Export Plug-In . SVG Version: 6.00 Build 0)  -->
<!DOCTYPE svg PUBLIC "-//W3C//DTD SVG 1.1//EN" "http://www.w3.org/Graphics/SVG/1.1/DTD/svg11.dtd">
<svg version="1.1" id="Calque_1" xmlns="http://www.w3.org/2000/svg" xmlns:xlink="http://www.w3.org/1999/xlink" x="0px" y="0px"
	 width="65.703px" height="49.421px" viewBox="0 0 65.703 49.421" enable-background="new 0 0 65.703 49.421" xml:space="preserve">
<path fill="#B58335" d="M40.574,29.513c2.191,2.439,2.952,4.573,3.092,7.918c0.03,0.661-0.077,1.635-0.369,2.293
	c-0.689-4.075-3.432-7.743-6.724-9.902c-3.652-2.394-8.108-2.989-11.368-2.605c-2.35,0.274-5.531,1.024-7.986,2.693
	c3.3,1.661,5.505,3.315,6.88,7.23c0.33,0.949,0.126,1.447,0.246,2.081c-3.085-4.753-10.18-9.61-15.499-7.882
	c-5.615,1.6-8.812,5.532-8.846,9.137c-0.07,7.175,13.171,8.778,29.525,8.933c16.354,0.157,29.515-1.194,29.691-8.367
	C59.362,35.291,49.013,28.665,40.574,29.513z"/>
<g id="Your_Icon">
	<path fill="#010101" d="M12.247,1.082l20.349,26.837c0.123-0.272,0.167-0.534,0.114-0.782c-0.085-0.394-0.399-0.724-0.903-0.99
		L12.087,0l-4.26,18.732l2.404-2.262l0.356,3.507l3.091,1.694l-3.225,1.422l-0.657,3.463l-2.349-2.627l-0.825,0.105l-1.86,8.177
		c-0.197,0.339-0.285,0.664-0.22,0.968c0.443,2.064,7.108,2.386,14.886,0.717c5.968-1.28,10.845-3.359,12.598-5.19L12.247,1.082z
		 M12.6,28.879l-0.223,1.173l-0.795-0.89l-1.184,0.151l0.601-1.032l-0.51-1.079l1.166,0.251l0.869-0.817l0.12,1.187l1.047,0.574
		L12.6,28.879z M15.056,13.671l-1.148-1.284l-1.708,0.217l0.868-1.489l-0.736-1.558l1.683,0.363l1.256-1.18l0.174,1.714l1.512,0.829
		l-1.577,0.695L15.056,13.671z M17.754,18.103l1.166,0.251l0.87-0.817l0.12,1.187l1.047,0.574l-1.092,0.481l-0.223,1.173
		l-0.796-0.89l-1.184,0.151l0.601-1.032L17.754,18.103z M24.271,29.677l-1.674-1.872l-2.491,0.317l1.264-2.171l-1.072-2.271
		l2.455,0.531l1.83-1.721l0.254,2.498l2.202,1.208l-2.298,1.013L24.271,29.677z"/>
</g>
<g id="Capa_15">
	<g>
		<polygon fill="#010101" points="48.612,35.727 46.999,34.779 59.953,13.716 60.697,14.153 		"/>
		<g>
			<polygon fill="#010101" points="62.846,8.982 63.422,9.32 62.177,11.439 61.602,11.101 			"/>
		</g>
		<g>
			<polygon fill="#010101" points="63.099,14.988 65.219,16.233 64.881,16.808 62.762,15.562 			"/>
			<polygon fill="#010101" points="55.934,10.779 58.054,12.025 57.716,12.6 55.597,11.355 			"/>
		</g>
		<g>
			<polygon fill="#010101" points="63.156,12.733 65.535,12.116 65.703,12.761 63.323,13.379 			"/>
			<polygon fill="#010101" points="55.112,14.826 57.492,14.207 57.66,14.853 55.28,15.471 			"/>
		</g>
		<g>
			<polygon fill="#010101" points="60.822,16.709 61.467,16.541 62.086,18.921 61.441,19.089 			"/>
			<polygon fill="#010101" points="58.731,8.667 59.376,8.498 59.994,10.877 59.349,11.045 			"/>
		</g>
	</g>
</g>
</svg>
