<?xml version="1.0" encoding="utf-8"?>
<!-- Generator: Adobe Illustrator 17.0.2, SVG Export Plug-In . SVG Version: 6.00 Build 0)  -->
<!DOCTYPE svg PUBLIC "-//W3C//DTD SVG 1.1//EN" "http://www.w3.org/Graphics/SVG/1.1/DTD/svg11.dtd">
<svg version="1.1" id="Calque_1" xmlns="http://www.w3.org/2000/svg" xmlns:xlink="http://www.w3.org/1999/xlink" x="0px" y="0px"
	 width="1319.155px" height="636px" viewBox="0 0 1319.155 636" enable-background="new 0 0 1319.155 636" xml:space="preserve">
<g>
	<path fill="#B58335" d="M737.707,496.931c0.339-2.941,0.524-5.927,0.524-8.957c0.004-26.325-13.012-50.525-34.487-65.081
		c-10.07,14.084-26.484,22.76-44.166,22.76s-34.1-8.677-44.17-22.76c-21.476,14.556-34.491,38.76-34.491,65.081
		c0,2.538,0.137,5.044,0.376,7.52c25.071,0.603,50.572,1.011,76.422,1.256C684.803,497.01,711.494,497.082,737.707,496.931z"/>
	<path fill="#B58335" d="M571.508,487.974c0-33.307,18.512-62.272,45.792-77.236l0.323-0.219l0.022,0.031
		c0.368-0.2,0.731-0.407,1.102-0.602c7.059,15.508,22.679,26.294,40.83,26.294c18.147,0,33.775-10.79,40.834-26.294
		c0.369,0.194,0.73,0.4,1.097,0.599l0.02-0.028l0.291,0.197c27.302,14.958,45.828,43.931,45.828,77.258
		c0,3.002-0.151,5.968-0.445,8.893c13.397-0.106,26.663-0.273,39.788-0.505c-4.511-49.815-37.562-91.392-82.685-108.23
		c-1.672-23.248-21.054-41.596-44.727-41.596c-23.678,0-43.056,18.348-44.724,41.596c-44.421,16.577-77.144,57.127-82.456,105.911
		c13.004,0.464,26.147,0.867,39.412,1.213C571.613,492.854,571.508,490.426,571.508,487.974z"/>
	<path fill="#B58335" d="M903.846,53.54c48.807,54.332,65.76,101.87,68.878,176.384c0.668,14.725-1.715,36.422-8.22,51.08
		c-15.348-90.776-76.453-172.485-149.786-220.58C733.365,7.094,634.101-6.161,561.481,2.393
		c-52.349,6.104-123.21,22.811-177.899,59.99c73.512,37.001,122.631,73.846,153.261,161.058c7.351,21.14,2.807,32.234,5.48,46.357
		C473.6,163.919,315.55,55.723,197.062,94.216C71.981,129.858,0.763,217.449,0.006,297.755
		c-1.362,139.633,223.587,184.532,523.371,195.953c0.525-5.005,1.318-9.957,2.376-14.84l-4.482-5.5
		c-12.693-15.574-22.586-33.004-29.405-51.804c-7.059-19.462-10.639-39.918-10.639-60.799c0-22.464,4.274-38.344,13.066-48.547
		c8.224-9.543,20.265-14.182,36.813-14.181c14.476,0,31.081,3.323,50.308,7.169c23.506,4.703,50.149,10.033,78.163,10.033
		c28.014,0,54.653-5.33,78.156-10.033c19.227-3.847,35.832-7.169,50.309-7.169h0.008c16.544,0.001,28.585,4.641,36.809,14.185
		c8.794,10.204,13.069,26.083,13.069,48.544c0,20.882-3.579,41.338-10.637,60.798c-6.819,18.802-16.713,36.232-29.407,51.805
		l-4.479,5.495c1.233,5.69,2.104,11.475,2.611,17.327c297.495-5.991,519.695-46.86,523.105-185.828
		C1322.373,182.252,1091.836,34.649,903.846,53.54z"/>
	<path fill="#B58335" d="M788.049,307.037c-31.058-0.003-77.089,17.202-128.472,17.202c-51.378,0-97.414-17.201-128.472-17.202
		c-25.481-0.001-40.879,11.576-40.879,53.728c0,40.548,14.258,77.759,38.021,106.917c4.226-13.766,10.616-26.847,19.08-38.822
		c14.95-21.154,35.234-37.467,58.919-47.433c4.718-25.28,27.068-44.302,53.331-44.302c26.259,0,48.613,19.026,53.335,44.302
		c23.682,9.97,43.961,26.278,58.915,47.433c8.468,11.974,14.854,25.055,19.08,38.822c23.767-29.158,38.021-66.369,38.021-106.917
		C828.928,318.619,813.524,307.039,788.049,307.037z"/>
</g>
<g>
	<path fill="#010101" d="M547.327,428.861c14.95-21.154,35.234-37.467,58.919-47.433c4.718-25.28,27.068-44.302,53.331-44.302
		c26.259,0,48.613,19.026,53.335,44.302c23.682,9.97,43.961,26.278,58.915,47.433c8.468,11.974,14.854,25.055,19.08,38.822
		c23.767-29.158,38.02-66.369,38.02-106.917c0-93.53-75.82-36.527-169.351-36.527s-169.351-57.004-169.351,36.527
		c0,40.548,14.258,77.759,38.021,106.917C532.474,453.917,538.863,440.835,547.327,428.861z"/>
	<path fill="#010101" d="M703.744,422.893c-10.07,14.084-26.484,22.76-44.166,22.76c-17.683,0-34.1-8.677-44.17-22.76
		c-21.476,14.556-34.491,38.76-34.491,65.081c0,8.681,1.436,17.029,4.044,24.85c22.513,11.065,47.835,17.292,74.613,17.292
		c26.782,0,52.104-6.223,74.613-17.292c2.608-7.822,4.044-16.17,4.044-24.85C738.235,461.649,725.219,437.449,703.744,422.893z"/>
	<path fill="#010101" d="M704.305,388.132c-1.672-23.248-21.054-41.596-44.727-41.596c-23.678,0-43.056,18.348-44.724,41.596
		c-48.609,18.139-83.232,64.98-83.232,119.909c0,70.669,57.29,127.959,127.955,127.959c70.669,0,127.959-57.29,127.959-127.959
		C787.537,453.112,752.914,406.271,704.305,388.132z M659.577,576.043c-48.636,0-88.069-39.429-88.069-88.069
		c0-33.895,19.165-63.304,47.239-78.026c7.059,15.508,22.679,26.294,40.83,26.294c18.147,0,33.775-10.79,40.834-26.294
		c28.074,14.722,47.235,44.128,47.235,78.026C747.647,536.61,708.214,576.043,659.577,576.043z"/>
</g>
</svg>
