<?xml version="1.0" encoding="utf-8"?>
<!-- Generator: Adobe Illustrator 17.0.2, SVG Export Plug-In . SVG Version: 6.00 Build 0)  -->
<!DOCTYPE svg PUBLIC "-//W3C//DTD SVG 1.1//EN" "http://www.w3.org/Graphics/SVG/1.1/DTD/svg11.dtd">
<svg version="1.1" id="Calque_1" xmlns="http://www.w3.org/2000/svg" xmlns:xlink="http://www.w3.org/1999/xlink" x="0px" y="0px"
	 width="1319.155px" height="1281.676px" viewBox="0 0 1319.155 1281.676" enable-background="new 0 0 1319.155 1281.676"
	 xml:space="preserve">
<path fill="#B58335" d="M903.846,838.206c48.807,54.332,65.76,101.87,68.878,176.384c0.668,14.725-1.715,36.422-8.22,51.08
	c-12.34-72.986-54.263-140.105-108.336-188.61l-43.148,3.082l-291.333,11.333l-136.085-45.763c-0.672,0.448-1.353,0.884-2.02,1.338
	c73.512,37.001,122.631,73.846,153.261,161.058c7.351,21.14,2.807,32.234,5.48,46.357C473.6,948.585,315.55,840.389,197.062,878.882
	C71.981,914.524,0.763,1002.115,0.006,1082.421c-1.56,159.833,293.402,195.542,657.708,198.994
	c364.307,3.497,657.486-26.598,661.406-186.386C1322.373,966.918,1091.836,819.315,903.846,838.206z"/>
<g>
	<path fill="#010101" d="M1135.27,885.256c0,0-536.549,63.644-963.226,0.632c0,0-58.846-25.105-113.713-143.484l94.74,64.293
		l60.429-47.94l93.306,65.173l91.254-54.02l95.261,87.669l83.512-77.901l98.31,74.938l99.161-71.706l94.609,80.17l101.655-82.122
		l75.163,69.395l94.972-115.54l55.064,51.121C1197.525,788.805,1169.698,864.131,1135.27,885.256z"/>
	<path fill="#010101" d="M1204.177,761.028c0,0,45.514-67.42,44.112-92.23c-2.559-25.087-27.287-44.47-66.214-40.33
		c-38.927,4.14-405.929,49.644-519.107,47.018c-113.178-2.627-548.773-33.51-599.143-48.019
		C23.873,615.452,26.919,689.605,41.28,711.4c9.356,12.03,111.497,65.858,111.497,65.858l65.972-71.087l94.332,81.328l85.696-61.469
		l94.707,89.984l78.507-87.665l105.955,89.006l97.808-91.61l92.213,100.4l112.022-84.535l64.518,72.965l88.403-108.547
		L1204.177,761.028z"/>
	<path fill="#010101" d="M825.427,554.079c0,0-248.558,26.142-383.188-14.663L569.56,48.595c0,0,8.217-44.534,34.738-47.973
		c25.642-4.873,46.669,19.741,54.412,43.623C665.296,67.849,825.427,554.079,825.427,554.079z"/>
	<path fill="#010101" d="M831.083,571.342c0,0-222.167,38.58-394.664-7.621l-6.097,25.462c0,0,214.341,45.207,404.754,6.366
		L831.083,571.342z"/>
	<path fill="#010101" d="M839.624,617.441l6.634,28.511c0,0-222.493,34.831-426.141-9.04l5.494-28.054
		C425.611,608.858,599.868,657.928,839.624,617.441z"/>
</g>
</svg>
