<?xml version="1.0" encoding="utf-8"?>
<!-- Generator: Adobe Illustrator 17.0.2, SVG Export Plug-In . SVG Version: 6.00 Build 0)  -->
<!DOCTYPE svg PUBLIC "-//W3C//DTD SVG 1.1//EN" "http://www.w3.org/Graphics/SVG/1.1/DTD/svg11.dtd">
<svg version="1.1" id="Calque_1" xmlns="http://www.w3.org/2000/svg" xmlns:xlink="http://www.w3.org/1999/xlink" x="0px" y="0px"
	 width="59.218px" height="45.894px" viewBox="21.25 15.262 59.218 45.894" enable-background="new 21.25 15.262 59.218 45.894"
	 xml:space="preserve">
<path fill="#B58335" d="M61.824,41.248c2.191,2.439,2.952,4.573,3.092,7.918c0.03,0.661-0.077,1.635-0.369,2.293
	c-0.689-4.075-3.432-7.743-6.724-9.902c-3.652-2.394-8.108-2.989-11.368-2.605c-2.35,0.274-5.531,1.024-7.986,2.693
	c3.3,1.661,5.505,3.315,6.88,7.23c0.33,0.949,0.126,1.447,0.246,2.081c-3.085-4.753-10.18-9.61-15.499-7.882
	c-5.615,1.6-8.812,5.532-8.846,9.137c-0.07,7.175,13.171,8.778,29.525,8.933c16.354,0.157,29.515-1.194,29.691-8.367
	C80.612,47.026,70.263,40.4,61.824,41.248z"/>
<g>
	<path d="M68.837,36.953c-2.502,0.122-4.993,0.97-4.993,0.97c-0.367-0.515-1.044-5.628-1.112-9.603
		c-0.074-4.267,1.766-10.961,1.766-10.961c-1.398-1.103-6.18-2.06-14.606-2.06s-11.29,1.471-11.29,1.471s1.287,7.246,1.361,10.741
		c0.073,3.494-1.067,8.902-1.067,8.902c-8.46-1.434-6.731,2.575-6.731,2.575c1.876,5.668,10.189,5.664,10.189,5.664
		c10.263,0,15.201-2.863,15.201-2.863c10.382,1.263,11.89-3.137,11.89-3.137C70.26,36.893,68.837,36.953,68.837,36.953z
		 M57.194,28.634c0.123,2.662,0.102,4.165,0.369,9.695c0,0-1.288,0.106-1.675,0c0,0,0.405-6.554,0.405-9.354
		c0-2.799,0.116-3.736-0.109-11.247c0,0,0.643-0.029,1.582,0.186C57.766,17.915,57.072,25.971,57.194,28.634z M68.121,38.478
		c0,0-5.793,0.866-9.437,2.708h-0.129c0,0,3.503-2.362,9.241-3.281C67.795,37.904,68.946,37.672,68.121,38.478z"/>
	<path d="M42.353,44.689L42.353,44.689c-0.022,0-2.111-0.008-4.402-0.708c-2.118-0.648-4.848-2.038-5.822-4.982
		c-0.003-0.007-0.401-0.954,0.132-1.765c0.51-0.775,1.669-1.168,3.445-1.168c0.896,0,1.96,0.102,3.161,0.305
		c0.097-0.469,1.128-5.553,1.059-8.859c-0.073-3.452-1.348-10.663-1.36-10.735l-0.005-0.026l0.024-0.013
		c0.029-0.015,2.968-1.476,11.307-1.476c3.969,0,7.314,0.208,9.944,0.617c2.319,0.361,3.939,0.863,4.684,1.451l0.019,0.015
		l-0.007,0.023c-0.018,0.067-1.837,6.738-1.764,10.951c0.069,4.026,0.742,8.96,1.092,9.56c0.279-0.092,2.637-0.849,4.975-0.963
		c0.001,0,0.007-0.001,0.018-0.001c0.089,0,0.542,0.018,0.761,0.36c0.195,0.306,0.149,0.774-0.137,1.392
		c-0.01,0.031-0.305,0.859-1.493,1.697c-1.092,0.771-3.18,1.689-6.926,1.689l0,0c-1.081,0-2.257-0.076-3.497-0.227
		C57.295,41.976,52.279,44.689,42.353,44.689L42.353,44.689z M35.706,36.14c-1.75,0-2.888,0.382-3.384,1.135
		c-0.512,0.778-0.129,1.689-0.125,1.699c0.966,2.916,3.673,4.294,5.775,4.937c2.281,0.698,4.36,0.705,4.38,0.705l0,0
		c10.133,0,15.134-2.829,15.183-2.858l0.01-0.007l0.013,0.002c1.241,0.151,2.419,0.227,3.5,0.227c3.721,0,5.794-0.909,6.878-1.671
		c1.172-0.825,1.47-1.66,1.473-1.669c0.276-0.597,0.324-1.041,0.144-1.325c-0.199-0.31-0.617-0.326-0.7-0.326h-0.015
		c-2.467,0.121-4.958,0.961-4.983,0.969l-0.026,0.009l-0.016-0.022c-0.385-0.541-1.053-5.796-1.119-9.624
		c-0.071-4.096,1.641-10.505,1.76-10.948c-1.283-0.988-5.773-2.037-14.564-2.037c-7.919,0-10.953,1.317-11.249,1.455
		c0.087,0.493,1.286,7.37,1.356,10.719c0.073,3.459-1.056,8.856-1.067,8.91l-0.007,0.035l-0.035-0.006
		C37.679,36.244,36.607,36.14,35.706,36.14z M58.692,41.221h-0.258l0.1-0.067c0.035-0.023,3.575-2.376,9.255-3.286
		c0.005-0.001,0.157-0.031,0.314-0.031c0.189,0,0.304,0.045,0.34,0.134c0.048,0.117-0.049,0.292-0.297,0.533l-0.008,0.009
		l-0.012,0.002c-0.058,0.009-5.828,0.887-9.426,2.703L58.692,41.221z M68.104,37.91c-0.148,0-0.299,0.029-0.301,0.03
		c-5.064,0.812-8.42,2.77-9.1,3.194c3.533-1.771,9.105-2.646,9.401-2.691c0.281-0.277,0.292-0.398,0.272-0.445
		C68.352,37.941,68.256,37.91,68.104,37.91z M56.495,38.413c-0.292,0-0.498-0.016-0.616-0.048l-0.029-0.008l0.002-0.03
		c0.005-0.065,0.405-6.585,0.405-9.351c0-0.692,0.007-1.26,0.014-1.862c0.023-1.834,0.046-3.73-0.124-9.383l-0.002-0.036
		l0.036-0.002c0,0,0.645-0.031,1.592,0.187l0.031,0.007l-0.002,0.032C57.795,18,57.11,26.003,57.231,28.633
		c0.048,1.054,0.075,1.926,0.105,2.937c0.046,1.522,0.103,3.416,0.264,6.759l0.001,0.035l-0.035,0.003
		C57.561,38.366,56.986,38.413,56.495,38.413z M55.927,38.301c0.115,0.026,0.306,0.039,0.568,0.039c0.418,0,0.897-0.034,1.03-0.044
		c-0.16-3.321-0.216-5.207-0.262-6.724c-0.03-1.01-0.056-1.882-0.104-2.936c-0.118-2.55,0.521-10.134,0.568-10.692
		c-0.786-0.177-1.359-0.181-1.505-0.179c0.168,5.626,0.145,7.519,0.123,9.349c-0.008,0.602-0.014,1.17-0.014,1.861
		C56.33,31.646,55.957,37.81,55.927,38.301z"/>
</g>
</svg>
