<?xml version="1.0" encoding="utf-8"?>
<!-- Generator: Adobe Illustrator 17.0.2, SVG Export Plug-In . SVG Version: 6.00 Build 0)  -->
<!DOCTYPE svg PUBLIC "-//W3C//DTD SVG 1.1//EN" "http://www.w3.org/Graphics/SVG/1.1/DTD/svg11.dtd">
<svg version="1.1" id="Calque_1" xmlns="http://www.w3.org/2000/svg" xmlns:xlink="http://www.w3.org/1999/xlink" x="0px" y="0px"
	 width="1328.554px" height="495.648px" viewBox="0 0 1328.554 495.648" enable-background="new 0 0 1328.554 495.648"
	 xml:space="preserve">
<g>
	<path fill="#B58335" d="M914.427,53.393c48.674,54.183,65.579,101.59,68.69,175.9c0.666,14.684-1.711,36.322-8.198,50.94
		c-15.306-90.527-76.243-172.013-149.375-219.975C744.414,7.074,645.423-6.144,573.001,2.387
		C520.795,8.474,450.128,25.135,395.59,62.212c73.31,36.9,122.295,73.644,152.841,160.616c7.331,21.082,2.799,32.145,5.465,46.23
		C491.715,173.244,356.247,75.897,243.371,87.338c11.552,8.486,19.949,22.926,18.328,47.763c0,0,56.871,3.777,34.789,61.847
		c0,0,38.321,15.017,12.64,61.536c0,0,27.48,22.904-3.266,48.607c0,0,20.771,26.547-14.018,46.941c0,0,17.728,48.829-34.922,55.783
		c0,0-1.488,37.122-32.79,49.451c116.897,25.659,273.092,34.5,444.794,36.122c363.308,3.488,655.683-26.525,659.593-185.875
		C1331.807,181.753,1101.902,34.554,914.427,53.393z"/>
</g>
</svg>
