<?xml version="1.0" encoding="utf-8"?>
<!-- Generator: Adobe Illustrator 17.0.2, SVG Export Plug-In . SVG Version: 6.00 Build 0)  -->
<!DOCTYPE svg PUBLIC "-//W3C//DTD SVG 1.1//EN" "http://www.w3.org/Graphics/SVG/1.1/DTD/svg11.dtd">
<svg version="1.1" id="Calque_1" xmlns="http://www.w3.org/2000/svg" xmlns:xlink="http://www.w3.org/1999/xlink" x="0px" y="0px"
	 width="59.218px" height="22.311px" viewBox="21.25 38.845 59.218 22.311" enable-background="new 21.25 38.845 59.218 22.311"
	 xml:space="preserve">
<path fill="#B58335" d="M61.824,41.248c2.191,2.439,2.952,4.573,3.092,7.918c0.03,0.661-0.077,1.635-0.369,2.293
	c-0.689-4.075-3.432-7.743-6.724-9.902c-3.652-2.394-8.108-2.989-11.368-2.605c-2.35,0.274-5.531,1.024-7.986,2.693
	c3.3,1.661,5.505,3.315,6.88,7.23c0.33,0.949,0.126,1.447,0.246,2.081c-3.085-4.753-10.18-9.61-15.499-7.882
	c-5.615,1.6-8.812,5.532-8.846,9.137c-0.07,7.175,13.171,8.778,29.525,8.933c16.354,0.157,29.515-1.194,29.691-8.367
	C80.612,47.026,70.263,40.4,61.824,41.248z"/>
<path d="M74.043,45.005c-4.877-1.216-13.311-1.28-18.204,0.215c-1.651,0.503-2.926,1.103-4.98,1.117
	c-2.055-0.015-3.329-0.614-4.98-1.117c-4.893-1.495-13.327-1.431-18.205-0.215c-0.084,0.803-0.127,1.7,0.217,2.46
	c0.255,0.564,0.793,0.749,1.113,1.06c0.535,0.522,1.331,2.693,1.496,3.31c0.307,1.162,0.567,2.374,1.086,3.463
	c0.25,0.521,0.561,1.011,1.015,1.38c1.159,0.946,3.202,1.475,4.925,1.606c6.232,0.473,8.62-1.611,10.387-5.462
	c0.731-1.59,1.282-3.618,2.678-3.748c0.093-0.009,0.182-0.011,0.268-0.01c0.085-0.001,0.175,0.001,0.269,0.01
	c1.395,0.13,1.945,2.158,2.677,3.748c1.766,3.851,4.156,5.934,10.388,5.462c1.723-0.131,3.767-0.66,4.925-1.606
	c0.453-0.369,0.765-0.859,1.014-1.38c0.518-1.09,0.78-2.301,1.087-3.463c0.163-0.617,0.961-2.788,1.496-3.31
	c0.32-0.311,0.858-0.496,1.112-1.06C74.171,46.705,74.127,45.807,74.043,45.005z M46.949,50.68
	c-0.246,2.282-2.101,5.365-4.176,6.104c-2.694,0.959-8.496,0.561-9.851-1.393c-1.094-1.576-2.39-7.644-0.537-9.209
	c0.448-0.377,1.084-0.356,1.714-0.429c2.476-0.286,5.172-0.069,7.281,0.215C44.053,46.328,47.353,46.934,46.949,50.68z
	 M68.796,55.392c-1.357,1.954-7.159,2.352-9.852,1.393c-2.074-0.739-3.931-3.822-4.176-6.104c-0.404-3.746,2.896-4.353,5.568-4.712
	c2.11-0.284,4.805-0.501,7.283-0.215c0.628,0.072,1.265,0.052,1.712,0.429C71.186,47.747,69.89,53.816,68.796,55.392z"/>
</svg>
