<?xml version="1.0" encoding="utf-8"?>
<!-- Generator: Adobe Illustrator 17.0.2, SVG Export Plug-In . SVG Version: 6.00 Build 0)  -->
<!DOCTYPE svg PUBLIC "-//W3C//DTD SVG 1.1//EN" "http://www.w3.org/Graphics/SVG/1.1/DTD/svg11.dtd">
<svg version="1.1" id="Calque_1" xmlns="http://www.w3.org/2000/svg" xmlns:xlink="http://www.w3.org/1999/xlink" x="0px" y="0px"
	 width="59.284px" height="93.76px" viewBox="0 0 59.284 93.76" enable-background="new 0 0 59.284 93.76" xml:space="preserve">
<path fill="#B58335" d="M40.64,33.147c2.191,2.439,2.952,4.573,3.092,7.918c0.03,0.661-0.077,1.635-0.369,2.293
	c-0.689-4.075-3.432-7.743-6.724-9.902c-3.652-2.394-8.108-2.989-11.368-2.605c-2.35,0.274-5.531,1.024-7.986,2.693
	c3.3,1.661,5.505,3.315,6.88,7.23c0.33,0.949,0.126,1.447,0.246,2.081c-3.085-4.753-10.18-9.61-15.499-7.882
	c-5.615,1.6-8.812,5.532-8.846,9.137c-0.07,7.175,13.171,8.778,29.525,8.933c16.354,0.157,29.515-1.194,29.691-8.367
	C59.428,38.925,49.079,32.299,40.64,33.147z"/>
<g>
	<path fill="#010101" d="M51.636,59.035c-0.022-0.124-0.042-0.245-0.059-0.366c-0.48-3.383-1.046-6.778-1.593-10.062
		c-0.192-1.153-0.382-2.301-0.568-3.439l-0.138-0.842l-0.646,0.557c-0.218,0.187-0.455,0.372-0.698,0.562
		c-0.592,0.464-1.263,0.99-1.776,1.644c-0.334,0.426-0.539,0.938-0.735,1.431c-0.217,0.544-0.423,1.056-0.759,1.335
		c-0.879,0.726-1.247,1.52-1.558,2.339c-0.096,0.031-0.268,0.065-0.378,0.087c-0.169,0.031-0.341,0.068-0.488,0.112L42,52.468
		l-0.074,0.241c-0.456,1.486-1.316,2.241-2.556,2.241c-0.654,0-1.413-0.213-2.199-0.613c-2.264-1.156-4.652-2.139-6.688-2.95
		c-0.545-0.217-1.358-0.203-2.133-0.133l-0.442,0.038c-0.808,0.068-1.64,0.136-2.393,0.461c-1.013,0.438-2.016,0.931-2.987,1.407
		c-1.13,0.557-2.299,1.131-3.473,1.612c-1.472,0.608-2.365,0.246-3.153-1.349c-0.043-0.087-0.092-0.197-0.139-0.31
		c-0.218-0.505-0.359-0.837-0.832-0.831c-0.139,0.025-0.261,0.037-0.367,0.037c-0.335,0-0.381-0.037-0.438-0.656
		c-0.036-0.376-0.079-0.843-0.419-1.161l-0.122-0.084c-0.629-0.296-0.734-0.447-0.747-0.468c-0.203-1.617-1.214-2.553-2.19-3.461
		C9.983,45.872,9.355,45.29,8.96,44.5l-0.688-1.379l-0.213,1.526c-0.136,0.98-0.24,1.938-0.339,2.88
		c-0.218,2.03-0.423,3.947-0.934,5.77c-0.977,3.48-0.762,6.953-0.553,10.313l0.056,0.917c0.022,0.368,0.116,0.712,0.206,1.045
		c0.032,0.12,0.065,0.24,0.093,0.357c0.098,0.405,0.2,0.809,0.305,1.212c0.219,0.857,0.447,1.746,0.6,2.623
		c0.101,0.572,0.108,1.165,0.117,1.791c0.003,0.284,0.008,0.568,0.02,0.852l0.022,0.475l0.786-0.033v4.559l1.093-0.028
		c0.005,0.238,0.027,0.475,0.076,0.712c0.034,0.161,0.069,0.338,0.104,0.521c0.271,1.417,0.501,2.361,1.168,2.53
		c0.804,0.205,1,0.687,1.272,1.356c0.115,0.288,0.236,0.582,0.417,0.866c0.043,0.069,0.076,0.153,0.111,0.237
		c0.103,0.247,0.231,0.557,0.541,0.698c1.163,0.531,1.979,1.446,2.84,2.416c0.2,0.224,0.399,0.447,0.605,0.668
		c0.917,0.986,2.172,2.335,3.607,2.696c1.037,0.262,1.865,0.763,2.742,1.292c0.31,0.186,0.622,0.376,0.947,0.557l0.549,0.306
		l0.164-0.68l2.716,1.788l-0.41-1.566l1.763,1.983l1.761-2.019l-0.475,1.598l2.728-1.674l0.194,0.533l1.133-0.661
		c0.436-0.259,0.837-0.497,1.254-0.708c0.317-0.159,0.65-0.294,0.982-0.432c0.643-0.262,1.311-0.536,1.879-0.975
		c0.683-0.526,1.319-1.128,1.934-1.71c0.93-0.878,1.811-1.709,2.836-2.304c0.985-0.57,1.461-1.46,1.923-2.32
		c0.466-0.869,0.907-1.691,1.863-2.083c0.673-0.278,0.8-1.3,0.935-2.383c0.037-0.297,0.074-0.59,0.121-0.841
		s0.071-0.505,0.082-0.756l0.166,0.317l1.07-0.079v-2.188l0.056,0.327l0.44-2.967c0.269-1.808,0.647-3.608,1.012-5.35
		c0.206-0.982,0.413-1.965,0.601-2.95c0.084-0.445-0.033-0.952-0.136-1.399c-0.059-0.243-0.143-0.612-0.153-0.661
		C51.978,61.048,51.789,59.933,51.636,59.035z M26.266,64.405c-0.217,0.097-0.485,0.219-0.669,0.219c-0.052,0-0.191,0-0.25-0.505
		c-0.055-0.466-0.656-0.603-0.897-0.57c-1.537,0.09-2.054-0.843-2.646-1.944c-0.19-0.353-0.386-0.716-0.622-1.047
		c0.786-1.074,1.707-1.23,2.593-1.23c0.419,0,0.849,0.038,1.28,0.079c0.302,0.027,0.608,0.055,0.914,0.069
		c1.015,0.054,2.079,0.08,3.255,0.08c1.99,0,4.063-0.078,5.731-0.139l0.169-0.008c0.101-0.006,0.192-0.011,0.279-0.011
		c0.09,0,0.138,0.005,0.153,0c0.01,0.039,0.027,0.131,0.017,0.329c-0.019,0.4,0.336,0.596,0.716,0.801
		c-0.154,0.264-0.292,0.535-0.428,0.803c-0.641,1.256-1.147,2.25-2.854,2.25c-0.001,0-0.001,0-0.003,0
		c-0.454,0-0.753,0.441-1.041,0.865c-0.056,0.083-0.129,0.191-0.187,0.27c-0.861-0.219-2.789-0.562-4.138-0.562
		c-0.515,0-0.893,0.052-1.153,0.157L26.266,64.405z"/>
	<path fill="#010101" d="M9.548,40.127c0.372,0.108,0.559,0.335,0.629,0.761c0.069,0.417,0.144,0.831,0.22,1.245l0.152,0.843
		c0.226,1.3,0.515,2.343,0.907,3.283c0.308,0.739,0.845,1.79,1.928,2.384c0.628,0.345,1.261,0.614,1.883,0.804
		c1.112,0.339,2.249,0.482,3.39,0.415c3.453-0.195,6.253-1.891,7.679-4.657c0.629-1.221,1.093-2.486,1.464-3.562
		c0.209-0.608,0.72-0.824,1.13-0.824c0.52,0,0.934,0.307,1.112,0.824c0.372,1.079,0.836,2.346,1.465,3.562
		c1.426,2.765,4.224,4.461,7.679,4.657c0.178,0.01,0.355,0.015,0.534,0.015c0.957,0,1.916-0.144,2.854-0.431
		c0.622-0.189,1.255-0.46,1.882-0.804c1.086-0.594,1.621-1.645,1.93-2.384c0.394-0.943,0.682-1.986,0.907-3.282l0.148-0.828
		c0.078-0.42,0.153-0.84,0.223-1.261c0.07-0.424,0.257-0.652,0.631-0.761c0.237-0.069,0.632-0.28,0.623-0.921
		c-0.004-0.406-0.015-0.812-0.025-1.218l-0.005-0.24c-0.004-0.085-0.011-0.171-0.019-0.256l-0.01-0.107
		c-0.047-0.688-0.322-0.963-1.013-1.018c-0.228-0.018-0.459-0.032-0.689-0.047c-0.348-0.023-0.698-0.045-1.047-0.079
		c-0.382-0.038-0.763-0.087-1.144-0.135c-0.452-0.057-0.906-0.113-1.359-0.157l-1.032-0.092c-0.603-0.052-1.205-0.102-1.809-0.15
		l-0.894-0.071c-0.762-0.065-1.478,0.009-2.288,0.103l-0.541,0.059c-0.31,0.031-0.619,0.062-0.929,0.107
		c-0.665,0.093-1.349,0.215-2.031,0.362c-0.818,0.175-1.631,0.363-2.444,0.556c-0.782,0.186-1.653,0.275-2.732,0.282
		c-1.069-0.008-1.928-0.097-2.701-0.282c-0.813-0.192-1.627-0.381-2.444-0.556c-0.68-0.147-1.365-0.269-2.031-0.362
		c-0.308-0.045-0.618-0.076-0.929-0.107l-0.543-0.059c-0.598-0.07-1.139-0.127-1.697-0.127c-0.196,0-0.394,0.008-0.655,0.029
		l-0.831,0.066c-0.604,0.048-1.207,0.098-1.809,0.15l-1.031,0.092c-0.455,0.043-0.908,0.099-1.362,0.157
		c-0.381,0.048-0.762,0.097-1.143,0.135c-0.349,0.034-0.698,0.056-1.049,0.079c-0.229,0.015-0.46,0.029-0.689,0.047
		c-0.689,0.055-0.963,0.33-1.012,1.019l-0.009,0.118c-0.008,0.079-0.014,0.161-0.017,0.241c-0.013,0.487-0.027,0.973-0.032,1.459
		C8.918,39.848,9.313,40.059,9.548,40.127z M25.038,38.931c0.032,0.037,0.068,0.099,0.106,0.166c0.029,0.052,0.06,0.104,0.094,0.155
		l0.096,0.14c0.045,0.064,0.089,0.129,0.129,0.196c0.073,0.125,0.103,0.289,0.139,0.478c0.014,0.082,0.031,0.164,0.037,0.164
		c0.051,0.933-0.152,1.856-0.378,2.715c-0.236,0.891-0.55,1.649-0.962,2.318c-1.035,1.682-2.886,2.765-5.077,2.974
		c-0.735,0.069-1.538,0.078-2.204,0c-0.433-0.05-0.935-0.131-1.379-0.338c-0.127-0.06-0.259-0.113-0.389-0.166l-0.22-0.09
		c-0.085-0.037-0.167-0.084-0.25-0.131c-0.074-0.042-0.148-0.083-0.22-0.12c-0.804-0.409-1.319-1.077-1.574-2.042
		c-0.475-1.809-0.61-3.597-0.399-5.316c0.039-0.322,0.152-0.666,0.261-0.998c0.125-0.378,0.408-0.628,1.01-0.888
		c0.698-0.301,1.505-0.501,2.538-0.633c0.832-0.106,1.651-0.159,2.437-0.159c0.554,0,1.106,0.027,1.641,0.079
		c1.514,0.148,2.7,0.442,3.734,0.926c0.212,0.099,0.418,0.228,0.674,0.434C24.934,38.839,24.991,38.88,25.038,38.931z
		 M44.995,39.038c0.11,0.33,0.22,0.67,0.26,0.996c0.212,1.721,0.076,3.508-0.399,5.316c-0.255,0.966-0.77,1.633-1.571,2.042
		c-0.075,0.036-0.145,0.078-0.217,0.117c-0.084,0.047-0.168,0.094-0.251,0.133l-0.228,0.093c-0.13,0.052-0.259,0.106-0.386,0.164
		c-0.442,0.206-0.944,0.288-1.377,0.338c-0.668,0.078-1.47,0.069-2.205,0c-2.193-0.209-4.044-1.292-5.077-2.974
		c-0.41-0.669-0.726-1.428-0.961-2.318c-0.227-0.86-0.429-1.785-0.39-2.635c0.019-0.08,0.033-0.162,0.047-0.242
		c0.036-0.191,0.068-0.354,0.139-0.479c0.038-0.066,0.083-0.131,0.127-0.194l0.099-0.144c0.032-0.051,0.062-0.103,0.093-0.155
		c0.037-0.066,0.074-0.129,0.108-0.167c0.043-0.05,0.098-0.089,0.217-0.185c0.194-0.157,0.401-0.285,0.612-0.385
		c1.035-0.484,2.221-0.777,3.733-0.926c0.536-0.052,1.088-0.079,1.642-0.079c0.785,0,1.604,0.054,2.435,0.159
		c1.035,0.133,1.841,0.333,2.538,0.633C44.487,38.365,44.853,38.599,44.995,39.038z"/>
	<path fill="#010101" d="M52.918,20.684c-1.129-0.66-2.386-1.154-3.601-1.632c-0.627-0.247-1.255-0.494-1.868-0.764
		c-0.115-0.051-0.24-0.111-0.353-0.181l-0.183-0.111l-0.205,0.064c-1.474,0.455-3.105,0.835-4.979,1.162
		c-11.266,1.967-21.987,1.669-32.007-0.894L9.16,18.171l-0.135,0.042c-2.63,0.818-5.373,1.78-7.468,3.728
		c-1.023,0.95-1.562,2.03-1.557,3.119c0.004,1.077,0.538,2.132,1.544,3.053c0.926,0.849,1.805,1.451,2.683,1.842
		c1.728,0.767,3.686,1.639,5.745,2.165c5.742,1.468,11.755,2.212,17.873,2.212l0,0c4.695,0,9.584-0.438,14.535-1.302
		c4.543-0.794,7.81-1.91,10.59-3.617c2.13-1.31,3.249-2.839,3.231-4.422C56.185,23.421,55.048,21.931,52.918,20.684z"/>
	<path fill="#010101" d="M28.149,18.56L28.149,18.56c4.406,0,8.994-0.468,13.634-1.39c1.529-0.305,2.908-0.659,4.211-1.084
		l0.642-0.209l-0.457-0.498c-0.046-0.05-0.062-0.082-0.07-0.094c-0.446-1.078-0.875-2.163-1.301-3.249
		c-0.649-1.641-1.317-3.337-2.044-4.979c-0.716-1.618-1.618-3.322-2.84-5.361c-0.79-1.321-1.855-1.705-3.421-1.163
		c-0.595,0.204-1.163,0.477-1.712,0.74c-0.187,0.09-0.378,0.181-0.567,0.27c-0.434,0.2-0.866,0.405-1.3,0.61
		c-0.671,0.32-1.345,0.638-2.023,0.943c-1.686,0.75-3.187,0.531-4.693-0.688c-0.98-0.794-2.017-1.455-3.085-1.967
		c-1.809-0.871-2.589-0.354-3.587,0.74c-0.552,0.604-1.236,1.353-1.67,2.202c-1.851,3.611-3.636,7.247-5.454,10.966
		c-0.147,0.301-0.175,0.62-0.206,0.959c-0.005,0.068-0.011,0.136-0.02,0.209l-1.495,0.502l1.365,0.377
		C17.235,17.831,22.649,18.559,28.149,18.56z"/>
</g>
</svg>
