<?xml version="1.0" encoding="utf-8"?>
<!-- Generator: Adobe Illustrator 17.0.2, SVG Export Plug-In . SVG Version: 6.00 Build 0)  -->
<!DOCTYPE svg PUBLIC "-//W3C//DTD SVG 1.1//EN" "http://www.w3.org/Graphics/SVG/1.1/DTD/svg11.dtd">
<svg version="1.1" id="Calque_1" xmlns="http://www.w3.org/2000/svg" xmlns:xlink="http://www.w3.org/1999/xlink" x="0px" y="0px"
	 width="1348.993px" height="1249.368px" viewBox="0 0 1348.993 1249.368" enable-background="new 0 0 1348.993 1249.368"
	 xml:space="preserve">
<path fill="#B58335" d="M903.846,446.758c48.807,54.332,65.76,101.87,68.878,176.384c0.668,14.725-1.715,36.422-8.22,51.08
	c-15.348-90.776-76.452-172.486-149.786-220.58c-81.353-53.329-180.617-66.584-253.237-58.03
	c-52.35,6.104-123.211,22.811-177.899,59.99c73.512,37.001,122.631,73.846,153.261,161.058c7.351,21.14,2.807,32.234,5.48,46.357
	C473.6,557.138,315.55,448.941,197.062,487.435C71.981,523.077,0.763,610.667,0.006,690.974
	c-1.56,159.833,293.402,195.542,657.708,198.994c364.307,3.497,657.486-26.598,661.406-186.386
	C1322.373,575.471,1091.836,427.868,903.846,446.758z"/>
<path d="M956.805,465.529c12.771,2.368,25.278,5.142,37.923,6.944c33.13,4.722,66.321,9.014,99.485,13.496
	c5.706,0.771,10.114-1.364,13.399-5.923c2.014-2.795,1.963-5.37-0.751-7.959c-41.595-39.681-83.161-79.392-124.628-119.206
	c-1.583-1.52-2.995-4.175-2.946-6.265c0.179-7.644,0.885-15.285,1.634-22.904c0.743-7.557-0.605-14.384-4.83-20.903
	c-25.463-39.297-39.077-82.872-45.603-128.86c-1.18-8.313-4.755-15.066-10.775-20.222c-11.492-9.841-22.93-19.921-35.411-28.4
	C839.94,95.192,792.72,70.414,742.248,52.019c-1.392-0.507-3.3-1.619-3.6-2.798c-5.151-20.22-19.312-32.667-36.706-41.888
	c-23.638-12.531-53.713-8.705-73.645,9.207c-4.355,3.913-7.283,9.388-11.054,13.992c-1.086,1.325-2.789,2.98-4.26,3.031
	c-32.373,1.128-62.3,11.345-91.741,23.837c-21.111,8.958-40.138,20.783-56.446,36.994c-9.174,9.12-19.969,15.803-31.721,21.366
	c-29.577,14.001-55.905,32.335-75.229,59.436c-14.244,19.977-22.133,42.675-28.847,65.971
	c-5.984,20.762-11.157,41.925-19.278,61.855c-7.143,17.53-13.454,34.974-16.457,53.642c-1.532,9.519-6.023,17.687-13.131,24.141
	c-22.199,20.157-44.605,40.086-66.819,60.226c-16.291,14.77-32.51,29.623-48.529,44.685c-4.091,3.847-7.335,8.603-10.908,12.99
	c-2.245,2.757-2.237,5.974,0.354,8.076c4.041,3.279,8.275,7.307,13.06,8.517c26.37,6.672,53.292,7.936,80.374,6.373
	c6.262-0.361,12.507-1.006,20.187-1.637l297.132-39.666l214.333-17.674L956.805,465.529z"/>
<g>
	<path d="M1342.057,1061.665c-4.915-25.694-10.654-43.483-10.654-43.483s-6.722-11.39-74.611-15.67
		c-67.9-4.291-67.217,4.48-67.217,4.48s-6.44,22.221-15.452,40.246c6.834,3.479,33.983,15.717,86.66,21.274
		C1311.048,1073.826,1335.188,1064.92,1342.057,1061.665z M1320.083,1019.471c-0.318,3.72-26.783,4.456-59.106,1.648
		c-32.322-2.808-58.264-8.112-57.934-11.826c0.318-3.732,26.789-4.468,59.106-1.654
		C1294.478,1010.447,1320.413,1015.751,1320.083,1019.471z"/>
	<path d="M975.503,978.914c0.006-2.26,0.571-4.827,2.331-7.388c20.09-8.5,31.869-19.737,38.232-27.725
		c2.402,0.247,4.68,0.912,6.693,1.713C1016.231,953.873,1001.156,969.772,975.503,978.914z"/>
	<path d="M1082.177,1072.879c7.164-4.956,27.531-19.931,33.176-33.611c15.022,23.24,22.728,30.527,37.926,30.633
		c5.733,0.041,11.49-6.328,16.676-15.005c3.979,2.06,13.739,6.616,30.333,11.302c14.469,4.097,34.106,8.276,59.577,10.966
		c48.098,5.068,73.598-2.343,83.782-6.669c11.161,65.375,13.498,169.788-82.628,178.241
		c-68.836,6.051-115.663-32.976-134.193-48.557c-11.896-9.995-70.349-60.801-99.816-103.301
		C1041.002,1096.866,1063.923,1085.487,1082.177,1072.879z"/>
	<path d="M1029.058,948.804c0.912,0.606,1.436,1.007,1.436,1.007s25.465,38.138,34.165,52.013
		c-4.303,8.306-17.071,25.753-51.006,35.201l-36.313-50.959c0,0-0.077-0.124-0.194-0.341
		C1006.083,975.705,1022.377,957.769,1029.058,948.804z"/>
	<path d="M1075.796,1002.512c7.111-0.948,18.113,2.372,30.245,21.962c1.954,3.149,3.785,6.093,5.527,8.853
		c-0.665,8.241-13.221,22.027-32.364,35.26c-22.716,15.699-47.015,25.388-55.968,22.622c-11.131-17.341-16.612-32.858-11.055-43.018
		C1058.69,1036.654,1072.518,1010.712,1075.796,1002.512z"/>
	<path d="M773.027,788.434l-5.663,30.621c-0.241,1.336,0.571,2.619,1.854,2.984c0.077,0.012,0.147,0.035,0.235,0.053l3.42,0.636
		c0.689,0.118,1.377-0.024,1.954-0.418c0.565-0.388,0.965-0.989,1.083-1.672l0.889-4.774
		c129.254,15.946,189.749,131.78,199.574,152.476c19.284-8.194,30.704-19.072,36.855-26.707
		c-10.083-17.4-86.548-140.804-232.302-148.091l0.659-3.532c0.253-1.407-0.695-2.778-2.09-3.032l-3.426-0.636
		c-0.677-0.13-1.377,0.024-1.948,0.412C773.539,787.151,773.157,787.751,773.027,788.434z M875.028,825.807
		c0.671-1.277,2.255-1.772,3.514-1.101c44.925,23.546,77.524,56.51,96.967,80.026c0.912,1.107,0.753,2.743-0.353,3.673
		c-0.689,0.571-1.578,0.718-2.372,0.495c-0.489-0.135-0.948-0.424-1.301-0.848c-19.125-23.134-51.2-55.586-95.36-78.731
		C874.845,828.662,874.351,827.085,875.028,825.807z"/>
</g>
</svg>
