<?xml version="1.0" encoding="utf-8"?>
<!-- Generator: Adobe Illustrator 18.1.1, SVG Export Plug-In . SVG Version: 6.00 Build 0)  -->
<svg version="1.1" id="Calque_1" xmlns="http://www.w3.org/2000/svg" xmlns:xlink="http://www.w3.org/1999/xlink" x="0px" y="0px"
	 viewBox="0 0 1000 370" enable-background="new 0 0 1000 370" xml:space="preserve">
<g>
	<path fill="#EDECEC" d="M685.4,39.9c37,40.4,49.9,75.8,52.2,131.3c0.5,11-1.3,27.1-6.2,38c-11.6-67.6-58-128.4-113.6-164.2
		c-61.7-39.7-137-49.6-192-43.2c-39.7,4.5-93.4,17-134.9,44.7c55.7,27.5,93,55,116.2,119.9c5.6,15.7,2.1,24,4.2,34.5
		C359.2,122,239.3,41.5,149.4,70.1C54.6,96.7,0.6,161.9,0,221.7c-1.2,119,222.5,145.6,498.8,148.1c276.3,2.6,498.6-19.8,501.6-138.8
		C1002.8,135.7,828,25.8,685.4,39.9z"/>
	<rect x="332.8" y="24.6" fill="#B58335" width="0" height="45.3"/>
	<rect x="332.8" y="119.9" fill="#B58335" width="0" height="244.4"/>
	<path fill="#4D77B8" d="M332.8,70V24.6c-14.6,5.9-28.9,13.1-41.9,21.8C306.2,54,320.2,61.6,332.8,70z"/>
	<path fill="#4D77B8" d="M149.4,70.1C54.6,96.7,0.6,161.9,0,221.7c-0.9,93.9,138.3,130.3,332.8,142.7V119.9
		C276.4,78.1,206.8,51.8,149.4,70.1z"/>
	<path fill="#EDEDED" d="M665.6,367.4v-283C651.1,69.3,634.9,56,617.9,45c-61.7-39.7-137-49.6-192-43.2c-27.2,3.1-61,9.9-93,22.9V70
		c33.3,22,57.5,49.3,74.3,96.4c5.6,15.7,2.1,24,4.2,34.5c-18.8-28.5-46.5-57.2-78.5-80.9v244.4c51.9,3.3,107.8,4.9,166,5.5
		C557.4,370.4,613.5,369.8,665.6,367.4z"/>
	<path fill="#E95A59" d="M1000.4,231c2.5-95.4-172.4-205.3-314.9-191.2c37,40.4,49.9,75.8,52.2,131.3c0.5,11-1.3,27.1-6.2,38
		c-8.1-46.9-32.8-90.5-65.8-124.7v283C859.5,358.6,998,324.8,1000.4,231z"/>
</g>
</svg>
