<?xml version="1.0" encoding="utf-8"?>
<!-- Generator: Adobe Illustrator 18.1.1, SVG Export Plug-In . SVG Version: 6.00 Build 0)  -->
<svg version="1.1" id="Calque_1" xmlns="http://www.w3.org/2000/svg" xmlns:xlink="http://www.w3.org/1999/xlink" x="0px" y="0px"
	 viewBox="-253.7 393.3 63.3 27.9" enable-background="new -253.7 393.3 63.3 27.9" xml:space="preserve">
<path fill="#B58335" d="M-226.5,407.3l0.6-2.6l-3.3-1.4l1-3.5l-1.3-1.5l0.2-2.1c-1.3,0.2-2.6,0.6-3.6,1c-2.2,0.9-5.1,2.5-7,4.7
	c3.6,0.7,6.2,1.7,8.6,5.1c0.6,0.8,0.5,1.4,0.8,1.9c-4.2-3.7-12.4-6.5-17-3.4c-5,3-7,7.7-6.1,11.2c1.8,6.8,14.4,5,29.7,1l0.7-2.7
	l-3-1.1l1.8-3.7L-226.5,407.3z"/>
<path fill="#B58335" d="M-206.5,397.1c1.7,2.8,2,5.1,1.5,8.4c-0.1,0.7-0.4,1.6-0.8,2.2c0.1-4.1-1.8-8.3-4.6-11
	c-1.5-1.5-3.2-2.6-5-3.3l-0.9,1.4l0.5,2.1l-2,2.2l2.2,2.7l-2.2,2.6l0.8,3.8l-2.5,1.9l1.9,2.1l-2.3,2.6c15.5,3.2,28.1,4.3,29.6-2.6
	C-189.2,406.5-198.1,397.9-206.5,397.1z"/>
</svg>
