<?xml version="1.0" encoding="utf-8"?>
<!-- Generator: Adobe Illustrator 18.1.1, SVG Export Plug-In . SVG Version: 6.00 Build 0)  -->
<svg version="1.1" id="Calque_1" xmlns="http://www.w3.org/2000/svg" xmlns:xlink="http://www.w3.org/1999/xlink" x="0px" y="0px"
	 viewBox="-250.5 385.3 59.2 41" enable-background="new -250.5 385.3 59.2 41" xml:space="preserve">
<path fill="#B58335" d="M-209.9,397.1c2.2,2.4,3,4.6,3.1,7.9c0,0.7-0.1,1.6-0.4,2.3c-0.7-4.1-3.4-7.7-6.7-9.9
	c-3.7-2.4-8.1-3-11.4-2.6c-2.3,0.3-5.5,1-8,2.7c3.3,1.7,5.5,3.3,6.9,7.2c0.3,0.9,0.1,1.4,0.2,2.1c-3.1-4.8-10.2-9.6-15.5-7.9
	c-5.6,1.6-8.8,5.5-8.8,9.1c-0.1,7.2,13.2,8.8,29.5,8.9c16.4,0.2,29.5-1.2,29.7-8.4C-191.2,402.9-201.5,396.2-209.9,397.1z"/>
<path d="M-208.9,396.3c0,5.8-4.8,9.4-9.2,10.6c0,0,0,1.1,0,2.5c0,1.9-1.7,3.6-3.8,3.6c-2.4,0-3.8-1.8-3.8-3.7l0-4.7
	c0-1.7,1-2.9,3-3.5c3.6-1.1,5.9-2.4,5.9-4.8c0-3.1-3.2-3.6-4.9-3.2c-2.5,0.6-4,1.9-5.3,2.9c-1.7,1.2-3.8,0.8-5.1-0.7
	c-1.3-1.6-1.1-4,0.6-5.4c2.3-1.8,5.9-5,12.5-4.5C-213.1,385.9-208.9,390.8-208.9,396.3z"/>
<circle cx="-222.1" cy="422.1" r="4.2"/>
</svg>
